<?xml version="1.0" standalone="no"?>
<!DOCTYPE svg PUBLIC "-//W3C//DTD SVG 20010904//EN"
 "http://www.w3.org/TR/2001/REC-SVG-20010904/DTD/svg10.dtd">
<svg version="1.0" xmlns="http://www.w3.org/2000/svg"
 width="256.000000pt" height="256.000000pt" viewBox="0 0 256.000000 256.000000"
 preserveAspectRatio="xMidYMid meet">

<g transform="translate(0.000000,256.000000) scale(0.100000,-0.100000)"
fill="#000000" stroke="none">
<path d="M927 2153 c-4 -3 -7 -87 -7 -185 l0 -178 -24 -11 c-37 -17 -47 -47
-44 -134 l3 -80 33 -3 32 -3 0 -74 c0 -41 -4 -77 -10 -80 -5 -3 -10 -18 -10
-33 0 -15 -7 -36 -15 -46 -8 -11 -15 -36 -15 -55 0 -20 -5 -54 -10 -76 -4 -22
-10 -78 -11 -124 -3 -79 -2 -84 19 -92 12 -5 22 -15 22 -23 0 -31 85 -28 105
3 4 7 100 11 288 11 271 0 283 -1 295 -20 19 -31 71 -27 105 10 21 22 25 30
13 30 -9 0 -16 5 -16 11 0 6 7 9 15 5 12 -4 15 6 15 57 -1 95 -19 260 -30 271
-5 5 -10 20 -10 32 0 13 -4 26 -10 29 -11 7 -13 134 -2 151 4 7 18 14 32 15
24 4 25 7 28 92 2 48 -1 87 -6 87 -6 0 -12 9 -15 20 -3 12 -14 20 -26 20 -20
0 -21 5 -23 188 l-3 187 -25 0 -25 0 -3 -138 c-2 -121 -4 -137 -17 -127 -10 9
-15 32 -15 76 l0 64 -285 0 -284 0 -4 -72 c-2 -42 -4 -14 -5 65 -2 136 -2 137
-25 137 -13 0 -27 -3 -30 -7z m41 -196 c2 -182 2 -187 -18 -187 -19 0 -20 6
-20 174 0 178 4 210 24 203 7 -2 12 -63 14 -190z m672 41 c0 -174 -6 -228 -26
-228 -11 0 -14 36 -14 190 0 183 1 190 20 190 19 0 20 -7 20 -152z m-722 -305
l-2 -68 -3 60 c-2 33 -10 63 -16 67 -8 5 -6 8 6 8 15 0 17 -9 15 -67z m52 23
c0 -29 -7 -52 -20 -67 l-19 -24 -1 68 c0 60 2 67 20 67 17 0 20 -7 20 -44z
m657 -17 c-11 -67 -27 -63 -27 8 0 31 4 43 18 46 9 3 17 5 18 6 0 0 -4 -26 -9
-60z m58 51 c3 -5 2 -10 -4 -10 -5 0 -13 5 -16 10 -3 6 -2 10 4 10 5 0 13 -4
16 -10z m-788 -107 c-2 -21 -4 -6 -4 32 0 39 2 55 4 38 2 -18 2 -50 0 -70z
m-30 25 c-2 -13 -4 -3 -4 22 0 25 2 35 4 23 2 -13 2 -33 0 -45z m820 -20 c-2
-18 -4 -6 -4 27 0 33 2 48 4 33 2 -15 2 -42 0 -60z m20 0 c-2 -18 -4 -6 -4 27
0 33 2 48 4 33 2 -15 2 -42 0 -60z m-798 -54 c8 -7 -12 -24 -30 -24 -13 0 -19
7 -19 21 0 16 4 19 23 13 12 -3 24 -8 26 -10z m61 6 c0 -5 -7 -10 -15 -10 -8
0 -15 5 -15 10 0 6 7 10 15 10 8 0 15 -4 15 -10z m738 -7 c5 -17 -26 -29 -40
-15 -6 6 -7 15 -3 22 9 14 37 9 43 -7z m-85 0 c-7 -2 -19 -2 -25 0 -7 3 -2 5
12 5 14 0 19 -2 13 -5z m-375 -20 c-10 -2 -26 -2 -35 0 -10 3 -2 5 17 5 19 0
27 -2 18 -5z m200 -10 c22 -5 22 -5 20 -197 l-3 -191 -2 187 -3 187 -38 6
c-20 4 -55 11 -77 15 -34 8 -31 8 20 4 33 -3 70 -8 83 -11z m-181 -7 c1 0 4
-13 8 -29 6 -21 4 -27 -9 -27 -9 0 -16 6 -17 13 0 10 -2 10 -6 0 -2 -7 -11
-13 -19 -13 -8 0 -14 6 -14 13 0 9 -2 9 -8 0 -4 -6 -21 -13 -37 -15 l-30 -3
-6 -155 -5 -155 0 183 c1 100 0 182 -2 182 -1 0 -7 -10 -12 -22 l-9 -23 0 22
c-1 34 26 44 99 37 36 -4 66 -7 67 -8z m166 -12 c15 -5 17 -22 17 -185 l0
-179 -22 1 c-16 1 -18 3 -6 6 14 4 17 23 17 159 1 143 0 155 -16 154 -38 -4
-53 1 -54 18 -1 16 -2 16 -6 0 -2 -10 -11 -18 -19 -18 -8 0 -15 8 -15 18 -1
16 -2 16 -6 0 -2 -10 -11 -18 -20 -18 -10 0 -13 6 -9 16 3 9 6 23 6 31 0 13
10 14 58 9 31 -4 65 -9 75 -12z m-257 -358 c40 2 63 0 59 -6 -4 -6 41 -11 117
-13 97 -2 83 -3 -64 -5 l-188 -2 2 173 2 172 3 -162 3 -161 66 4z m-236 189
c0 -8 -7 -15 -15 -15 -8 0 -15 7 -15 15 0 8 7 15 15 15 8 0 15 -7 15 -15z
m710 -6 c0 -5 -7 -9 -15 -9 -15 0 -20 12 -9 23 8 8 24 -1 24 -14z m-660 -104
c0 -10 -10 -15 -30 -15 -20 0 -30 5 -30 15 0 10 10 15 30 15 20 0 30 -5 30
-15z m60 0 c0 -9 -9 -15 -25 -15 -16 0 -25 6 -25 15 0 9 9 15 25 15 16 0 25
-6 25 -15z m518 -2 c-2 -10 -13 -19 -26 -21 -17 -3 -22 2 -22 17 0 16 6 21 26
21 19 0 25 -5 22 -17z m62 -3 c0 -15 -7 -20 -25 -20 -18 0 -25 5 -25 20 0 15
7 20 25 20 18 0 25 -5 25 -20z m-353 -76 c-3 -3 -12 -4 -19 -1 -8 3 -5 6 6 6
11 1 17 -2 13 -5z m40 0 c-3 -3 -12 -4 -19 -1 -8 3 -5 6 6 6 11 1 17 -2 13 -5z
m40 0 c-3 -3 -12 -4 -19 -1 -8 3 -5 6 6 6 11 1 17 -2 13 -5z m40 0 c-3 -3 -12
-4 -19 -1 -8 3 -5 6 6 6 11 1 17 -2 13 -5z m65 -34 l238 0 0 -60 c0 -97 -6
-100 -200 -100 l-160 0 0 30 c0 27 -3 30 -34 30 -68 0 -96 -11 -96 -36 l0 -24
-158 0 c-183 0 -179 -3 -189 107 l-6 66 183 -6 c101 -4 290 -7 422 -7z m-582
-150 c0 -5 -4 -10 -10 -10 -5 0 -10 5 -10 10 0 6 5 10 10 10 6 0 10 -4 10 -10z"/>
<path d="M1153 1553 c9 -2 23 -2 30 0 6 3 -1 5 -18 5 -16 0 -22 -2 -12 -5z"/>
<path d="M520 700 l0 -180 760 0 760 0 0 180 0 180 -760 0 -760 0 0 -180z
m1500 0 l0 -170 -740 0 -740 0 0 170 0 170 740 0 740 0 0 -170z"/>
<path d="M570 700 l0 -140 310 0 310 0 0 140 0 140 -310 0 -310 0 0 -140z
m140 45 c7 -9 9 -19 5 -23 -4 -4 -10 -1 -12 6 -5 14 -43 17 -43 3 0 -5 14 -14
30 -21 17 -7 30 -18 30 -24 0 -17 -21 -36 -41 -36 -20 0 -45 28 -34 38 4 4 10
1 12 -5 6 -15 43 -17 43 -3 0 6 -11 15 -24 20 -32 12 -41 28 -26 45 16 19 44
19 60 0z m56 -28 l11 -32 18 40 17 40 19 -40 18 -40 10 28 c6 16 11 33 11 38
0 6 4 8 9 5 10 -6 -18 -106 -30 -106 -3 0 -13 17 -21 38 l-15 37 -18 -40 -17
-40 -14 31 c-18 43 -29 91 -18 81 5 -5 14 -23 20 -40z m164 -12 c0 -30 -4 -55
-10 -55 -11 0 -14 93 -3 103 12 12 13 8 13 -48z m90 45 c0 -5 -9 -10 -20 -10
-11 0 -20 -7 -20 -15 0 -8 9 -15 20 -15 11 0 20 -4 20 -10 0 -5 -9 -10 -20
-10 -14 0 -20 -7 -20 -21 0 -11 -4 -17 -10 -14 -11 7 -14 88 -3 98 10 11 53 8
53 -3z m105 0 c3 -5 -3 -10 -14 -10 -18 0 -21 -7 -23 -47 l-2 -48 -3 48 c-3
39 -7 47 -24 47 -11 0 -17 5 -14 10 3 6 21 10 40 10 19 0 37 -4 40 -10z"/>
<path d="M1220 704 l0 -45 43 3 c38 3 42 6 45 31 5 38 -14 57 -54 57 -34 0
-34 0 -34 -46z m65 1 c0 -11 -8 -21 -17 -23 -14 -3 -18 3 -18 23 0 20 4 26 18
23 9 -2 17 -12 17 -23z"/>
<path d="M1340 705 c0 -25 5 -45 10 -45 6 0 10 20 10 45 0 25 -4 45 -10 45 -5
0 -10 -20 -10 -45z"/>
<path d="M1387 744 c-14 -15 -6 -35 18 -46 14 -6 25 -15 25 -20 0 -5 -11 -6
-25 -2 -14 3 -25 4 -25 0 0 -11 39 -26 54 -20 25 10 19 43 -9 54 -33 13 -32
24 1 16 19 -5 25 -3 22 6 -5 14 -50 23 -61 12z"/>
<path d="M1480 706 c0 -25 5 -46 10 -46 6 0 10 4 10 9 0 5 10 11 23 13 17 2
22 10 22 33 0 27 -4 30 -32 33 -33 3 -33 3 -33 -42z m42 9 c0 -5 -5 -11 -11
-13 -6 -2 -11 4 -11 13 0 9 5 15 11 13 6 -2 11 -8 11 -13z"/>
<path d="M1585 714 c-8 -20 -15 -39 -15 -43 0 -3 20 -6 44 -7 l44 -1 -16 44
c-20 52 -37 55 -57 7z m31 -21 c-10 -10 -19 5 -10 18 6 11 8 11 12 0 2 -7 1
-15 -2 -18z"/>
<path d="M1670 740 c0 -5 7 -10 15 -10 10 0 15 -11 15 -35 0 -24 5 -35 15 -35
10 0 15 11 15 35 0 24 5 35 15 35 8 0 15 5 15 10 0 6 -20 10 -45 10 -25 0 -45
-4 -45 -10z"/>
<path d="M1782 738 c-20 -20 -14 -56 13 -74 23 -15 27 -15 50 0 34 22 31 28
-9 21 -36 -7 -50 3 -40 30 5 13 14 15 36 11 21 -4 28 -2 26 7 -6 17 -60 21
-76 5z"/>
<path d="M1890 705 c0 -25 5 -45 10 -45 6 0 10 7 10 15 0 8 9 15 20 15 11 0
20 -7 20 -15 0 -8 5 -15 10 -15 6 0 10 20 10 45 0 46 -14 61 -23 25 -3 -11
-10 -20 -17 -20 -7 0 -14 9 -17 20 -9 36 -23 21 -23 -25z"/>
</g>
</svg>
